<svg width="64" height="64" viewBox="0 0 64 64" fill="none" xmlns="http://www.w3.org/2000/svg">
<path d="M0 20.8277C0 9.3249 9.3249 0 20.8277 0H43.1723C54.6751 0 64 9.3249 64 20.8277V43.1723C64 54.6751 54.6751 64 43.1723 64H20.8277C9.3249 64 0 54.6751 0 43.1723V20.8277Z" fill="url(#paint0_linear_18479_130)"/>
<path d="M48.7522 20.3511C48.8085 20.3183 48.8552 20.2712 48.8877 20.2147C48.9202 20.1582 48.9373 20.0941 48.9373 20.0289C48.9373 19.9637 48.9202 19.8996 48.8877 19.8431C48.8552 19.7866 48.8085 19.7395 48.7522 19.7067L34.5069 11.4303C33.5954 10.902 32.5606 10.6238 31.5071 10.6238C30.4535 10.6238 29.4187 10.902 28.5072 11.4303L14.2647 19.7067C14.2084 19.7395 14.1617 19.7866 14.1292 19.8431C14.0967 19.8996 14.0796 19.9637 14.0796 20.0289C14.0796 20.0941 14.0967 20.1582 14.1292 20.2147C14.1617 20.2712 14.2084 20.3183 14.2647 20.3511L31.321 30.3846C31.3784 30.4184 31.4437 30.4362 31.5103 30.4362C31.5769 30.4362 31.6423 30.4184 31.6996 30.3846L48.7522 20.3511ZM12.668 22.8889C12.6111 22.856 12.5466 22.8388 12.4809 22.8389C12.4152 22.839 12.3507 22.8564 12.2939 22.8895C12.2371 22.9225 12.19 22.9699 12.1575 23.027C12.1249 23.084 12.108 23.1487 12.1084 23.2144V39.4322C12.1098 40.2137 12.3158 40.9813 12.7059 41.6585C13.0959 42.3358 13.6565 42.8991 14.3318 43.2924L29.4557 52.3606C29.5124 52.3933 29.5767 52.4106 29.6421 52.4106C29.7076 52.4106 29.7719 52.3934 29.8286 52.3607C29.8853 52.328 29.9324 52.281 29.9652 52.2243C29.9979 52.1676 30.0152 52.1034 30.0153 52.0379V33.2217C30.0152 33.1563 29.9979 33.092 29.9652 33.0354C29.9325 32.9787 29.8854 32.9317 29.8287 32.899L12.668 22.8889ZM32.9998 33.287V52.0332C32.9998 52.0987 33.0171 52.163 33.0499 52.2196C33.0827 52.2763 33.1298 52.3233 33.1865 52.356C33.2432 52.3887 33.3075 52.4059 33.3729 52.4059C33.4384 52.4059 33.5027 52.3887 33.5593 52.3559L48.6823 43.2878C49.3571 42.8949 49.9174 42.3324 50.3076 41.656C50.6978 40.9797 50.9043 40.213 50.9066 39.4322V23.2144C50.9064 23.149 50.889 23.0848 50.8562 23.0283C50.8233 22.9718 50.7762 22.9249 50.7195 22.8923C50.6629 22.8597 50.5986 22.8426 50.5332 22.8426C50.4679 22.8427 50.4037 22.8599 50.347 22.8926L33.1863 32.9652C33.1298 32.9979 33.0828 33.0447 33.0501 33.1012C33.0173 33.1577 33 33.2217 32.9998 33.287Z" fill="white"/>
<defs>
<linearGradient id="paint0_linear_18479_130" x1="11.0961" y1="58.2546" x2="60.376" y2="3.91628" gradientUnits="userSpaceOnUse">
<stop offset="0.229502" stop-color="#3D74FE"/>
<stop offset="1" stop-color="#91CFFF"/>
</linearGradient>
</defs>
</svg>
